<?xml version="1.0" encoding="UTF-8"?>
<svg xmlns="http://www.w3.org/2000/svg" xmlns:xlink="http://www.w3.org/1999/xlink" width="24pt" height="24pt" viewBox="0 0 24 24" version="1.1">
<g id="surface1">
<path style=" stroke:none;fill-rule:nonzero;fill:rgb(100%,0%,0%);fill-opacity:1;" d="M 12 22 C 13.101562 22 14 21.101562 14 20 L 10 20 C 10 21.101562 10.898438 22 12 22 Z M 18 16 L 18 11 C 18 7.929688 16.371094 5.359375 13.5 4.679688 L 13.5 4 C 13.5 3.171875 12.828125 2.5 12 2.5 C 11.171875 2.5 10.5 3.171875 10.5 4 L 10.5 4.679688 C 7.640625 5.359375 6 7.921875 6 11 L 6 16 L 4 18 L 4 19 L 20 19 L 20 18 Z M 16 17 L 8 17 L 8 11 C 8 8.519531 9.511719 6.5 12 6.5 C 14.488281 6.5 16 8.519531 16 11 Z M 7.578125 4.078125 L 6.148438 2.648438 C 3.75 4.480469 2.171875 7.300781 2.03125 10.5 L 4.03125 10.5 C 4.179688 7.851562 5.539062 5.53125 7.578125 4.078125 Z M 19.96875 10.5 L 21.96875 10.5 C 21.820312 7.300781 20.238281 4.480469 17.851562 2.648438 L 16.429688 4.078125 C 18.449219 5.53125 19.820312 7.851562 19.96875 10.5 Z M 19.96875 10.5 "/>
</g>
</svg>
