<?xml version="1.0" standalone="no"?>
<svg version="1.0" xmlns="http://www.w3.org/2000/svg"
 width="880.000000pt" height="625.000000pt" viewBox="0 0 880.000000 625.000000"
 preserveAspectRatio="xMidYMid meet">

<g transform="translate(0.000000,625.000000) scale(0.100000,-0.100000)"
fill="#000000" stroke="none">
<path d="M4343 4693 c-9 -3 -13 -36 -13 -114 l0 -109 -40 0 -40 0 0 45 0 45
-45 0 -45 0 0 -45 0 -45 -40 0 -40 0 0 45 0 45 -45 0 -45 0 0 -130 0 -130 23
9 c12 5 59 25 105 44 l83 36 -3 -37 c-3 -36 -5 -37 -96 -76 -51 -22 -89 -43
-85 -47 5 -4 47 -24 96 -45 84 -36 87 -38 87 -71 0 -18 -2 -33 -4 -33 -3 0
-47 18 -97 40 -51 22 -96 40 -101 40 -4 0 -8 -58 -8 -130 l0 -130 45 0 45 0 0
50 0 50 40 0 40 0 0 -50 0 -50 45 0 45 0 0 50 0 50 40 0 40 0 0 -240 c0 -132
-2 -240 -5 -240 -3 0 -190 160 -416 355 -226 195 -418 355 -426 355 -21 0 -61
-44 -69 -76 -7 -29 -2 -35 105 -127 l45 -37 -20 -27 c-28 -37 -37 -38 -72 -8
l-31 26 -27 -37 -28 -36 32 -27 c38 -31 38 -33 10 -71 l-21 -29 -37 29 -38 30
-27 -36 c-15 -19 -25 -36 -24 -38 2 -1 43 -37 92 -79 48 -42 91 -77 95 -77 5
0 21 44 36 98 37 126 36 125 65 102 l25 -18 -31 -106 c-17 -58 -28 -106 -25
-106 2 0 45 23 94 51 l89 51 25 -23 24 -23 -100 -59 -99 -59 91 -79 c50 -44
96 -78 102 -76 5 2 19 15 30 30 l20 27 -32 33 -33 34 23 29 c12 16 23 31 25
33 2 3 16 -8 31 -22 36 -34 43 -34 71 4 l23 31 -32 33 -32 33 21 31 c13 17 24
31 26 31 2 0 89 -74 194 -164 l190 -164 -177 -153 c-97 -84 -185 -159 -195
-168 -17 -14 -21 -12 -56 29 -38 44 -39 44 -66 30 -15 -8 -32 -25 -38 -37 -10
-23 -10 -22 39 -91 18 -24 11 -42 -10 -27 -7 6 -32 24 -56 42 -72 55 -142 76
-251 77 -91 1 -99 -1 -170 -36 -137 -68 -227 -193 -249 -345 -13 -92 1 -197
36 -273 l25 -55 -35 -33 c-41 -37 -43 -45 -16 -89 32 -54 55 -59 97 -24 l37
31 30 -26 c17 -14 65 -42 106 -62 72 -35 80 -37 175 -37 128 1 191 24 276 102
106 99 149 202 149 356 -1 86 -15 149 -54 240 -16 34 21 17 48 -23 14 -22 29
-40 32 -40 18 0 66 35 73 53 7 17 2 30 -20 58 -16 20 -29 41 -29 47 0 9 312
284 331 290 5 2 9 -88 9 -232 l0 -236 -54 0 c-59 0 -66 -7 -66 -64 0 -44 16
-56 72 -56 26 0 48 -4 48 -9 0 -5 -30 -18 -67 -30 -177 -55 -306 -219 -320
-406 -11 -143 31 -259 128 -361 66 -68 153 -120 221 -130 l38 -7 0 -52 c0 -59
7 -65 68 -65 52 0 60 9 64 65 l3 50 45 11 c201 50 340 233 340 448 0 222 -139
404 -347 456 -60 15 -53 28 15 32 l57 3 0 55 0 55 -57 3 -58 3 0 241 c0 229 1
240 18 226 9 -8 87 -74 172 -148 85 -73 157 -135 159 -136 2 -2 -11 -21 -28
-42 -37 -47 -38 -62 -8 -89 43 -39 48 -39 88 8 20 24 40 41 44 37 4 -4 -5 -37
-20 -74 -93 -231 2 -497 213 -601 73 -37 80 -38 176 -37 118 0 180 20 264 84
l53 41 35 -31 c39 -34 56 -31 93 16 31 39 27 67 -14 98 l-35 27 20 39 c11 22
27 68 35 102 40 171 -5 335 -126 456 -150 150 -388 159 -562 21 -50 -40 -66
-28 -27 21 37 47 38 72 4 99 -37 29 -49 27 -81 -19 -15 -22 -33 -39 -39 -37
-17 3 -379 318 -379 329 0 5 83 81 185 169 l185 159 29 -31 28 -32 -37 -32
-38 -31 30 -34 30 -34 34 28 33 28 23 -28 c30 -37 29 -42 -9 -74 l-31 -26 23
-32 c13 -18 28 -32 32 -32 14 0 188 153 183 160 -3 4 -45 31 -95 59 -49 29
-90 56 -90 60 0 9 33 41 42 41 4 0 45 -23 93 -51 47 -28 88 -49 91 -47 2 3
-10 51 -27 107 l-30 102 23 19 c13 10 26 16 30 12 3 -4 19 -50 33 -102 15 -52
31 -99 36 -104 4 -5 39 18 81 54 125 109 116 93 84 135 l-28 37 -27 -26 c-34
-33 -44 -33 -71 1 l-21 26 32 33 c33 34 32 40 -6 88 -15 19 -16 19 -48 -13
l-34 -32 -26 35 -27 35 78 67 c42 37 77 71 76 76 -1 4 -2 14 -2 22 -3 23 -52
76 -70 76 -10 0 -78 -53 -153 -118 -519 -448 -688 -592 -693 -592 -3 0 -6 263
-6 584 0 523 -2 584 -16 590 -18 7 -83 7 -101 -1z m-815 -1763 c98 -60 93
-193 -11 -243 -67 -33 -147 7 -168 85 l-11 41 -40 -40 -41 -41 22 -46 c12 -25
38 -59 57 -75 33 -29 106 -57 122 -47 5 3 8 -23 8 -57 0 -40 6 -73 17 -94 21
-39 83 -103 100 -103 7 0 29 14 50 31 l38 31 -30 19 c-80 49 -94 151 -29 216
91 90 212 23 212 -117 0 -69 -27 -124 -89 -178 -123 -108 -282 -120 -405 -31
l-44 32 32 27 c37 31 40 57 11 94 -37 47 -57 52 -90 20 -18 -18 -33 -24 -39
-18 -21 21 -42 139 -36 204 11 118 96 248 190 291 55 25 132 25 174 -1z m1918
0 c56 -27 119 -98 152 -168 35 -75 42 -196 17 -277 -10 -30 -20 -55 -22 -55
-2 0 -20 12 -39 26 -33 25 -35 26 -60 9 -14 -9 -32 -33 -41 -52 -14 -35 -14
-36 18 -69 32 -33 32 -34 13 -50 -93 -75 -233 -92 -338 -40 -166 82 -228 254
-129 358 67 70 188 26 207 -76 10 -52 -22 -121 -67 -142 l-34 -16 38 -35 c46
-42 64 -39 113 19 43 50 59 95 54 153 l-3 43 40 7 c56 9 103 41 136 94 39 61
37 83 -11 121 -38 30 -40 31 -40 10 0 -36 -37 -86 -76 -105 -119 -56 -235 108
-147 208 53 60 141 74 219 37z m-1158 -576 c55 -38 69 -135 29 -195 -37 -55
-92 -66 -169 -34 -16 6 -18 1 -18 -48 0 -53 1 -55 31 -66 77 -27 166 -7 211
47 l26 31 17 -25 c33 -52 151 -80 219 -54 24 9 26 15 26 65 0 55 -6 65 -27 44
-17 -17 -96 -14 -125 5 -54 35 -72 117 -42 182 23 48 50 64 110 64 67 0 111
-29 144 -95 20 -42 24 -64 25 -140 0 -78 -4 -98 -28 -150 -35 -75 -106 -150
-172 -181 -75 -35 -85 -33 -85 21 0 40 -3 47 -27 56 -18 7 -41 8 -63 2 -33 -8
-35 -10 -38 -55 -2 -31 -8 -48 -16 -48 -31 0 -137 64 -176 106 -69 75 -85 122
-85 244 0 93 3 110 25 150 34 60 80 90 139 90 26 0 56 -7 69 -16z"/>
</g>
</svg>
